<?xml version="1.0" encoding="iso-8859-1"?>
<!-- Generator: Adobe Illustrator 19.0.0, SVG Export Plug-In . SVG Version: 6.00 Build 0)  -->
<svg version="1.1" id="Layer_1" xmlns="http://www.w3.org/2000/svg" xmlns:xlink="http://www.w3.org/1999/xlink" x="0px" y="0px"
	 viewBox="0 0 488.725 488.725" style="enable-background:new 0 0 488.725 488.725;" xml:space="preserve">
<g>
	<g>
		<path d="M269.463,32.425l-30.7-30.7c-2.3-2.3-6.1-2.3-8.5,0c-2.3,2.3-2.3,6.1,0,8.5l20.5,20.5h-6.4c-57.1-0.2-110.8,22-151.2,62.4
			c-40.4,40.4-62.6,94.1-62.6,151.2c0,3.3,2.7,6,6,6s6-2.7,6-6c0-111.3,90.5-201.8,201.8-201.8h6.5l-20.5,20.5
			c-2.3,2.3-2.3,6.1,0,8.5c1.2,1.2,2.7,1.8,4.2,1.8s3.1-0.6,4.2-1.8l30.7-30.7c1.1-1.1,1.8-2.7,1.8-4.2
			S270.662,33.525,269.463,32.425z"/>
	</g>
</g>
<g>
	<g>
		<path d="M395.563,395.525c40.4-40.4,62.6-94.1,62.6-151.2c0-3.3-2.7-6-6-6s-6,2.7-6,6c0,111.3-90.5,201.8-201.8,201.8h-6.5
			l20.5-20.5c2.3-2.3,2.3-6.1,0-8.5c-2.3-2.4-6.1-2.3-8.5,0l-30.7,30.7c-1.1,1.1-1.8,2.7-1.8,4.2s0.6,3.1,1.8,4.2l30.7,30.7
			c1.2,1.2,2.7,1.8,4.2,1.8s3.1-0.6,4.2-1.8c2.3-2.3,2.3-6.1,0-8.5l-20.5-20.5h6.5C301.463,458.125,355.162,435.925,395.563,395.525
			z"/>
	</g>
</g>
<g>
	<g>
		<path d="M376.062,268.125l-12.9-5.3c1.9-12.3,1.9-24.8,0-37.1l12.9-5.3c4.5-1.9,8-5.3,9.8-9.8s1.9-9.4,0-13.9l-7.8-18.9
			c-2.8-6.8-9.4-11.2-16.8-11.2c-2.4,0-4.7,0.5-6.9,1.4l-12.9,5.3c-7.3-10.1-16.1-18.9-26.2-26.2l5.3-12.9
			c3.8-9.2-0.6-19.9-9.8-23.7l-18.9-7.8c-2.2-0.9-4.6-1.4-6.9-1.4c-7.4,0-13.9,4.4-16.8,11.2l-5.3,12.9c-12.3-1.9-24.8-1.9-37.1,0
			l-5.3-12.9c-2.8-6.8-9.4-11.2-16.8-11.2c-2.4,0-4.7,0.5-6.9,1.4l-18.9,7.8c-4.5,1.9-8,5.3-9.8,9.8s-1.9,9.4,0,13.9l5.3,12.9
			c-10.1,7.3-18.9,16.1-26.2,26.2l-12.9-5.3c-2.2-0.9-4.6-1.4-6.9-1.4c-7.4,0-13.9,4.4-16.8,11.2l-7.8,18.9c-1.9,4.5-1.9,9.4,0,13.9
			c1.9,4.5,5.3,8,9.8,9.8l12.9,5.3c-1.9,12.3-1.9,24.8,0,37.1l-12.9,5.3c-9.2,3.8-13.6,14.5-9.8,23.7l7.8,18.9
			c2.8,6.8,9.4,11.2,16.8,11.2c2.4,0,4.7-0.5,6.9-1.4l12.9-5.3c7.3,10.1,16.1,18.9,26.2,26.2l-5.3,12.9c-1.8,4.5-1.8,9.4,0,13.9
			c1.9,4.5,5.3,8,9.8,9.8l18.9,7.8c2.2,0.9,4.6,1.4,6.9,1.4c7.4,0,13.9-4.4,16.8-11.2l5.3-12.9c12.3,1.9,24.8,1.9,37.1,0l5.3,12.9
			c2.8,6.8,9.4,11.2,16.8,11.2c2.4,0,4.7-0.5,6.9-1.4l18.9-7.8c9.2-3.8,13.7-14.5,9.8-23.7l-5.3-12.9c10.1-7.3,18.9-16.1,26.2-26.2
			l12.9,5.3c2.2,0.9,4.6,1.4,6.9,1.4c7.4,0,13.9-4.4,16.8-11.2l7.8-18.9C389.662,282.625,385.262,271.925,376.062,268.125z
			 M374.662,287.325l-7.8,18.9c-1,2.3-3.2,3.8-5.7,3.8c-0.8,0-1.6-0.2-2.3-0.5l-17.3-7.2c-2.6-1.1-5.7-0.2-7.3,2.2
			c-7.9,11.9-17.9,21.9-29.8,29.8c-2.4,1.6-3.3,4.6-2.2,7.3l7.2,17.3c1.3,3.1-0.2,6.7-3.3,8l-18.9,7.8c-0.8,0.3-1.5,0.5-2.3,0.5
			c-2.5,0-4.7-1.5-5.7-3.8l-7.2-17.3c-0.9-2.3-3.2-3.7-5.5-3.7c-0.4,0-0.8,0-1.2,0.1c-13.8,2.8-28.3,2.7-42.1,0
			c-2.8-0.6-5.6,0.9-6.7,3.6l-7.2,17.3c-1,2.3-3.2,3.8-5.7,3.8c-0.8,0-1.6-0.2-2.3-0.5l-18.9-7.8c-1.5-0.6-2.7-1.8-3.3-3.3
			c-0.6-1.5-0.6-3.2,0-4.7l7.2-17.3c1.1-2.6,0.2-5.7-2.2-7.3c-11.9-8-21.9-18-29.8-29.8c-1.6-2.4-4.6-3.3-7.3-2.2l-17.3,7.2
			c-0.8,0.3-1.5,0.5-2.3,0.5c-2.5,0-4.7-1.5-5.7-3.8l-7.8-18.9c-1.3-3.1,0.2-6.7,3.3-8l17.3-7.2c2.6-1.1,4.1-3.9,3.6-6.7
			c-2.8-14-2.8-28.1,0-42.1c0.6-2.8-0.9-5.6-3.6-6.7l-17.3-7.2c-1.5-0.6-2.7-1.8-3.3-3.3c-0.6-1.5-0.6-3.2,0-4.7l7.8-18.9
			c1-2.3,3.2-3.8,5.7-3.8c0.8,0,1.6,0.2,2.3,0.5l17.3,7.2c2.6,1.1,5.7,0.2,7.3-2.2c7.9-11.9,17.9-21.9,29.8-29.8
			c2.4-1.6,3.3-4.6,2.2-7.3l-7.2-17.3c-0.6-1.5-0.6-3.2,0-4.7c0.6-1.5,1.8-2.7,3.3-3.3l18.9-7.8c0.8-0.3,1.5-0.5,2.3-0.5
			c2.5,0,4.7,1.5,5.7,3.8l7.2,17.3c1.1,2.6,3.9,4.1,6.7,3.6c13.8-2.8,28.2-2.7,42.1,0c2.8,0.6,5.6-0.9,6.7-3.6l7.2-17.3
			c1-2.3,3.2-3.8,5.7-3.8c0.8,0,1.6,0.2,2.3,0.5l18.9,7.8c1.5,0.6,2.7,1.8,3.3,3.3s0.6,3.2,0,4.7l-7.2,17.3
			c-1.1,2.6-0.2,5.7,2.2,7.3c11.9,7.9,21.9,17.9,29.8,29.8c1.6,2.4,4.6,3.3,7.3,2.2l17.3-7.2c0.8-0.3,1.5-0.5,2.3-0.5
			c2.5,0,4.7,1.5,5.7,3.8l7.8,18.9c0.6,1.5,0.6,3.2,0,4.7c-0.6,1.5-1.8,2.7-3.3,3.3l-17.3,7.2c-2.6,1.1-4.1,3.9-3.6,6.7
			c2.8,14,2.8,28.1,0,42.1c-0.6,2.8,0.9,5.6,3.6,6.7l17.3,7.2C374.462,280.625,375.962,284.225,374.662,287.325z"/>
	</g>
</g>
<g>
	<g>
		<path d="M300.163,221.225c-9.4-22.7-31.3-37.3-55.8-37.3c-7.9,0-15.7,1.5-23.1,4.6c-30.8,12.7-45.4,48.1-32.7,78.9
			c9.4,22.7,31.3,37.3,55.8,37.3c7.9,0,15.7-1.5,23.1-4.6c14.9-6.2,26.5-17.8,32.7-32.7
			C306.363,252.525,306.363,236.125,300.163,221.225z M289.063,262.825c-4.9,11.9-14.3,21.2-26.2,26.2c-5.9,2.5-12.1,3.7-18.5,3.7
			c-19.7,0-37.2-11.7-44.7-29.9c-10.2-24.6,1.5-53,26.2-63.2c5.9-2.5,12.1-3.7,18.5-3.7c19.7,0,37.2,11.7,44.7,29.9
			C293.963,237.725,293.963,250.925,289.063,262.825z"/>
	</g>
</g>
<g>
</g>
<g>
</g>
<g>
</g>
<g>
</g>
<g>
</g>
<g>
</g>
<g>
</g>
<g>
</g>
<g>
</g>
<g>
</g>
<g>
</g>
<g>
</g>
<g>
</g>
<g>
</g>
<g>
</g>
</svg>
